<svg width="54" height="54" viewBox="0 0 54 54" fill="none" xmlns="http://www.w3.org/2000/svg">
<g filter="url(#filter0_d)">
<mask id="mask0" mask-type="alpha" maskUnits="userSpaceOnUse" x="4" y="3" width="46" height="46">
<path d="M44.026 3H9.97403C6.67466 3 4 5.67466 4 8.97403V43.026C4 46.3253 6.67466 49 9.97403 49H44.026C47.3253 49 50 46.3253 50 43.026V8.97403C50 5.67466 47.3253 3 44.026 3Z" fill="white"/>
</mask>
<g mask="url(#mask0)">
<rect x="-21.7057" y="31.6602" width="73.0585" height="10.6452" transform="rotate(-45 -21.7057 31.6602)" fill="#E15644"/>
<rect x="-14.1783" y="39.1875" width="73.0585" height="10.6452" transform="rotate(-45 -14.1783 39.1875)" fill="#F87B35"/>
<rect x="-6.651" y="46.7148" width="73.0585" height="10.6452" transform="rotate(-45 -6.651 46.7148)" fill="#F7B149"/>
<rect x="0.876221" y="54.2421" width="73.0585" height="10.6452" transform="rotate(-45 0.876221 54.2421)" fill="#4EE189"/>
<rect x="8.40332" y="61.7694" width="73.0585" height="10.6452" transform="rotate(-45 8.40332 61.7694)" fill="#64B2FA"/>
<rect x="15.9305" y="69.2968" width="73.0585" height="10.6452" transform="rotate(-45 15.9305 69.2968)" fill="#8D3EDC"/>
</g>
<path d="M20.6366 35.6C19.0449 35.6 17.7943 35.2945 16.8848 34.6834C16.0586 34.1776 15.4325 33.4018 15.1126 32.4874L17.7685 31.844C18.0014 32.2462 18.3182 32.5936 18.6973 32.8624C19.2881 33.241 19.9856 33.4182 20.6854 33.3674C21.4267 33.3978 22.1578 33.1863 22.7683 32.7648C23.0533 32.5316 23.2769 32.2323 23.4197 31.8929C23.5624 31.5535 23.62 31.1843 23.5873 30.8175V28.4465H23.4394C23.2616 28.788 23.0382 29.1038 22.7753 29.3851C22.4513 29.7295 22.0603 30.004 21.6264 30.1919C21.0602 30.4266 20.4504 30.5376 19.8378 30.5176C18.9221 30.5293 18.0202 30.2941 17.2269 29.8366C16.4204 29.3538 15.7743 28.6438 15.3693 27.7955C14.877 26.7322 14.6412 25.5682 14.6808 24.3971C14.6446 23.1989 14.88 22.0081 15.3693 20.9137C15.7712 20.0315 16.4169 19.2825 17.2302 18.7548C18.0132 18.263 18.9212 18.007 19.8458 18.0175C20.4737 17.9939 21.0981 18.121 21.6668 18.3883C22.1016 18.6033 22.4873 18.9057 22.7997 19.2767C23.0495 19.5754 23.2642 19.9019 23.4394 20.2496H23.6023V18.1799H26.5121V30.8987C26.5467 31.8317 26.278 32.7507 25.7462 33.5181C25.2158 34.231 24.4898 34.7744 23.6563 35.0823C22.6909 35.442 21.6666 35.6176 20.6366 35.6ZM20.661 28.202C21.0788 28.2231 21.4955 28.1418 21.8746 27.965C22.2538 27.7882 22.584 27.5214 22.8363 27.1877C23.391 26.3606 23.66 25.3748 23.6023 24.3807C23.6508 23.3721 23.3862 22.3733 22.8448 21.521C22.6035 21.1691 22.2761 20.8848 21.8939 20.6951C21.5116 20.5054 21.0872 20.4167 20.661 20.4374C20.2247 20.4136 19.7898 20.5045 19.3996 20.7011C19.0094 20.8976 18.6774 21.1929 18.4368 21.5576C17.9095 22.4022 17.6479 23.3857 17.6859 24.3807C17.6377 25.3624 17.9032 26.334 18.4439 27.1549C18.6965 27.5007 19.0318 27.7778 19.4191 27.9607C19.8064 28.1436 20.2334 28.2265 20.661 28.202ZM40.7206 18.1803L36.262 30.695H33.0048L28.5462 18.1803H31.6907L34.5668 27.4768H34.6972L37.5841 18.1803H40.7206Z" fill="white"/>
</g>
<defs>
<filter id="filter0_d" x="0" y="0" width="54" height="54" filterUnits="userSpaceOnUse" color-interpolation-filters="sRGB">
<feFlood flood-opacity="0" result="BackgroundImageFix"/>
<feColorMatrix in="SourceAlpha" type="matrix" values="0 0 0 0 0 0 0 0 0 0 0 0 0 0 0 0 0 0 127 0"/>
<feOffset dy="1"/>
<feGaussianBlur stdDeviation="2"/>
<feColorMatrix type="matrix" values="0 0 0 0 0 0 0 0 0 0 0 0 0 0 0 0 0 0 0.25 0"/>
<feBlend mode="normal" in2="BackgroundImageFix" result="effect1_dropShadow"/>
<feBlend mode="normal" in="SourceGraphic" in2="effect1_dropShadow" result="shape"/>
</filter>
</defs>
</svg>
